# xmcd
#
# Track frame offsets:
#	150
#	14156
#	32058
#	53510
#	76757
#	100002
#	116031
#	132581
#	150682
#	167625
#
# Disc length: 2546 seconds
#
# Revision: 0
# Processed by: cddbd v1.5.2PL0 Copyright (c) Steve Scherf et al.
# Submitted via: EasyCDDAExtractor 10.0.6.1
#
DISCID=7809f00a
DTITLE=La Borgoña - Primer trago
DYEAR=1900
DGENRE=
TTITLE0=El doctor
TTITLE1=Vértigo y acción
TTITLE2=Viejas maletas
TTITLE3=Ya amaneció
TTITLE4=Viejo Miguel
TTITLE5=Rutas del sur
TTITLE6=Indecisión
TTITLE7=Azucena
TTITLE8=Rock para Poncharello
TTITLE9=Calles de tango
EXTD=
EXTT0=
EXTT1=
EXTT2=
EXTT3=
EXTT4=
EXTT5=
EXTT6=
EXTT7=
EXTT8=
EXTT9=
PLAYORDER=
